<svg width="47" height="47" viewBox="0 0 47 47" fill="none" xmlns="http://www.w3.org/2000/svg">
<path d="M25.8791 37.7311C25.9213 33.4172 24.8277 29.9091 23.4365 29.8955C22.0452 29.882 20.8831 33.368 20.841 37.6819C20.7988 41.9958 21.8925 45.504 23.2837 45.5175C24.675 45.5312 25.837 42.0451 25.8791 37.7311Z" fill="black"/>
<path d="M17.8103 36.7514C20.1783 33.1451 21.1551 29.6027 19.9921 28.839C18.829 28.0753 15.9666 30.3797 13.5988 33.9859C11.2308 37.5921 10.2541 41.1345 11.417 41.8982C12.5801 42.6619 15.4424 40.3576 17.8103 36.7514Z" fill="black"/>
<path d="M11.5424 31.5774C15.4842 29.8241 18.2212 27.3722 17.6557 26.101C17.0903 24.8297 13.4365 25.2206 9.49469 26.974C5.55293 28.7273 2.8159 31.1792 3.38136 32.4504C3.94681 33.7217 7.60062 33.3308 11.5424 31.5774Z" fill="black"/>
<path d="M17.1825 22.536C17.3942 21.1609 14.1092 19.5141 9.84537 18.8578C5.58142 18.2015 1.95326 18.7843 1.74161 20.1594C1.52996 21.5346 4.81496 23.1812 9.07888 23.8376C13.3427 24.4939 16.9709 23.9111 17.1825 22.536Z" fill="black"/>
<path d="M18.7133 19.2601C19.6347 18.2177 17.7611 15.0565 14.5285 12.1996C11.2959 9.34268 7.92851 7.87181 7.00714 8.91432C6.08577 9.95686 7.95938 13.118 11.192 15.9749C14.4245 18.8319 17.792 20.3027 18.7133 19.2601Z" fill="black"/>
<path d="M21.7624 17.3456C23.1011 16.9668 23.2342 13.2945 22.0595 9.14342C20.8849 4.99229 18.8474 1.93425 17.5086 2.31308C16.1699 2.69191 16.0369 6.36415 17.2115 10.5153C18.3861 14.6664 20.4237 17.7245 21.7624 17.3456Z" fill="black"/>
<path d="M30.0409 10.6445C31.2972 6.5173 31.2366 2.84314 29.9056 2.43799C28.5746 2.03283 26.4771 5.0501 25.2208 9.17725C23.9646 13.3044 24.0251 16.9786 25.3562 17.3837C26.6872 17.7888 28.7846 14.7716 30.0409 10.6445Z" fill="black"/>
<path d="M35.9564 16.2211C39.2443 13.4279 41.1793 10.304 40.2785 9.24371C39.3777 8.18339 35.9821 9.58819 32.6943 12.3813C29.4065 15.1745 27.4715 18.2984 28.3723 19.3587C29.2731 20.4191 32.6687 19.0143 35.9564 16.2211Z" fill="black"/>
<path d="M37.9124 24.1128C42.1885 23.5407 45.5053 21.9591 45.3208 20.58C45.1363 19.201 41.5203 18.5469 37.2443 19.1189C32.9683 19.6909 29.6514 21.2726 29.836 22.6517C30.0205 24.0306 33.6364 24.6849 37.9124 24.1128Z" fill="black"/>
<path d="M43.4283 32.8445C44.0188 31.5847 41.3306 29.0794 37.4242 27.2486C33.5178 25.4179 29.8724 24.9551 29.282 26.2149C28.6916 27.4748 31.3797 29.9802 35.2862 31.8109C39.1925 33.6416 42.8379 34.1044 43.4283 32.8445Z" fill="black"/>
<path d="M35.2112 42.1401C36.389 41.3996 35.4823 37.8385 33.186 34.1863C30.8897 30.5341 28.0732 28.1739 26.8954 28.9144C25.7176 29.6549 26.6243 33.216 28.9206 36.8682C31.217 40.5204 34.0334 42.8807 35.2112 42.1401Z" fill="black"/>
</svg>
